<svg width="46" height="56" viewBox="0 0 46 56" fill="none" xmlns="http://www.w3.org/2000/svg">
<path d="M1.1208 49L4.89222 16H41.1078L44.8792 49H1.1208Z" stroke="#262526" stroke-width="2"/>
<path d="M11.7417 42.5L23 23L34.2583 42.5H11.7417Z" stroke="#262526" stroke-width="2"/>
<path d="M23 30L21 35H24L22 40" stroke="#262526" stroke-width="2"/>
<rect x="3" y="49" width="40" height="6" stroke="#262526" stroke-width="2"/>
<rect x="8" y="8" width="6" height="4" stroke="#262526" stroke-width="2"/>
<rect x="20" y="8" width="6" height="4" stroke="#262526" stroke-width="2"/>
<rect x="7" y="12" width="32" height="4" stroke="#262526" stroke-width="2"/>
<rect x="32" y="8" width="6" height="4" stroke="#262526" stroke-width="2"/>
<path d="M11 8V0" stroke="#262526" stroke-width="2"/>
<path d="M7 4L15 4" stroke="#262526" stroke-width="2"/>
<path d="M19 4L27 4" stroke="#262526" stroke-width="2"/>
<path d="M31 4L39 4" stroke="#262526" stroke-width="2"/>
<path d="M23 8V0" stroke="#262526" stroke-width="2"/>
<path d="M35 8V0" stroke="#262526" stroke-width="2"/>
</svg>
