<svg width="46" height="59" viewBox="0 0 46 59" fill="none" xmlns="http://www.w3.org/2000/svg">
<path d="M4.81347 33.5L23 2L41.1865 33.5H4.81347Z" stroke="#262526" stroke-width="2"/>
<path d="M9.14648 50.437C9.14648 46.2476 10.853 44.1528 14.2661 44.1528C14.8032 44.1528 15.2573 44.1943 15.6284 44.2773V45.7129C15.2573 45.6055 14.8276 45.5518 14.3394 45.5518C13.1919 45.5518 12.3301 45.8594 11.7539 46.4746C11.1777 47.0898 10.8652 48.0762 10.8164 49.4336H10.9043C11.1338 49.0381 11.4561 48.7329 11.8711 48.5181C12.2861 48.2983 12.7744 48.1885 13.3359 48.1885C14.3076 48.1885 15.0645 48.4863 15.6064 49.082C16.1484 49.6777 16.4194 50.4858 16.4194 51.5063C16.4194 52.6294 16.1045 53.5181 15.4746 54.1724C14.8496 54.8218 13.9951 55.1465 12.9111 55.1465C12.1445 55.1465 11.478 54.9634 10.9116 54.5972C10.3452 54.2261 9.9082 53.689 9.60059 52.9858C9.29785 52.2778 9.14648 51.4282 9.14648 50.437ZM12.8818 53.7256C13.4727 53.7256 13.9268 53.5352 14.2441 53.1543C14.5664 52.7734 14.7275 52.229 14.7275 51.521C14.7275 50.9058 14.5762 50.4224 14.2734 50.0708C13.9756 49.7192 13.5264 49.5435 12.9258 49.5435C12.5547 49.5435 12.2129 49.624 11.9004 49.7852C11.5879 49.9414 11.3413 50.1587 11.1606 50.437C10.98 50.7104 10.8896 50.9912 10.8896 51.2793C10.8896 51.9678 11.0752 52.5488 11.4463 53.0225C11.8223 53.4912 12.3008 53.7256 12.8818 53.7256ZM17.5547 51.7114V50.2466H21.3193V51.7114H17.5547ZM27.5742 55H25.853V48.0859C25.853 47.2607 25.8726 46.6064 25.9116 46.123C25.7993 46.2402 25.6602 46.3696 25.4941 46.5112C25.333 46.6528 24.7861 47.1021 23.8535 47.8589L22.9893 46.7676L26.1387 44.292H27.5742V55ZM38.3481 49.646C38.3481 51.5063 38.0479 52.8882 37.4473 53.7915C36.8516 54.6948 35.9385 55.1465 34.708 55.1465C33.5166 55.1465 32.6133 54.6802 31.998 53.7476C31.3828 52.8149 31.0752 51.4478 31.0752 49.646C31.0752 47.7563 31.373 46.3647 31.9688 45.4712C32.5693 44.5728 33.4824 44.1235 34.708 44.1235C35.9043 44.1235 36.8101 44.5923 37.4253 45.5298C38.0405 46.4673 38.3481 47.8394 38.3481 49.646ZM32.8184 49.646C32.8184 51.106 32.9673 52.1484 33.2651 52.7734C33.5679 53.3984 34.0488 53.7109 34.708 53.7109C35.3672 53.7109 35.8481 53.3936 36.1509 52.7588C36.4585 52.124 36.6123 51.0864 36.6123 49.646C36.6123 48.2104 36.4585 47.1729 36.1509 46.5332C35.8481 45.8887 35.3672 45.5664 34.708 45.5664C34.0488 45.5664 33.5679 45.8813 33.2651 46.5112C32.9673 47.1411 32.8184 48.186 32.8184 49.646Z" fill="#262526"/>
<path d="M24 15L20 22.5H26L22 30" stroke="#262526" stroke-width="2"/>
</svg>
