<svg width="46" height="59" viewBox="0 0 46 59" fill="none" xmlns="http://www.w3.org/2000/svg">
<path d="M4.81347 33.5L23 2L41.1865 33.5H4.81347Z" stroke="#262526" stroke-width="2"/>
<path d="M9.01221 53.3813L1.85645 50.2319V49.3457L9.01221 45.7715V47.1997L3.64355 49.7192L9.01221 51.9385V53.3813ZM15.4355 55H13.7144V48.0859C13.7144 47.2607 13.7339 46.6064 13.7729 46.123C13.6606 46.2402 13.5215 46.3696 13.3555 46.5112C13.1943 46.6528 12.6475 47.1021 11.7148 47.8589L10.8506 46.7676L14 44.292H15.4355V55ZM26.2095 49.646C26.2095 51.5063 25.9092 52.8882 25.3086 53.7915C24.7129 54.6948 23.7998 55.1465 22.5693 55.1465C21.3779 55.1465 20.4746 54.6802 19.8594 53.7476C19.2441 52.8149 18.9365 51.4478 18.9365 49.646C18.9365 47.7563 19.2344 46.3647 19.8301 45.4712C20.4307 44.5728 21.3438 44.1235 22.5693 44.1235C23.7656 44.1235 24.6714 44.5923 25.2866 45.5298C25.9019 46.4673 26.2095 47.8394 26.2095 49.646ZM20.6797 49.646C20.6797 51.106 20.8286 52.1484 21.1265 52.7734C21.4292 53.3984 21.9102 53.7109 22.5693 53.7109C23.2285 53.7109 23.7095 53.3936 24.0122 52.7588C24.3198 52.124 24.4736 51.0864 24.4736 49.646C24.4736 48.2104 24.3198 47.1729 24.0122 46.5332C23.7095 45.8887 23.2285 45.5664 22.5693 45.5664C21.9102 45.5664 21.4292 45.8813 21.1265 46.5112C20.8286 47.1411 20.6797 48.186 20.6797 49.646ZM34.7788 49.646C34.7788 51.5063 34.4785 52.8882 33.8779 53.7915C33.2822 54.6948 32.3691 55.1465 31.1387 55.1465C29.9473 55.1465 29.0439 54.6802 28.4287 53.7476C27.8135 52.8149 27.5059 51.4478 27.5059 49.646C27.5059 47.7563 27.8037 46.3647 28.3994 45.4712C29 44.5728 29.9131 44.1235 31.1387 44.1235C32.335 44.1235 33.2407 44.5923 33.856 45.5298C34.4712 46.4673 34.7788 47.8394 34.7788 49.646ZM29.249 49.646C29.249 51.106 29.3979 52.1484 29.6958 52.7734C29.9985 53.3984 30.4795 53.7109 31.1387 53.7109C31.7979 53.7109 32.2788 53.3936 32.5815 52.7588C32.8892 52.124 33.043 51.0864 33.043 49.646C33.043 48.2104 32.8892 47.1729 32.5815 46.5332C32.2788 45.8887 31.7979 45.5664 31.1387 45.5664C30.4795 45.5664 29.9985 45.8813 29.6958 46.5112C29.3979 47.1411 29.249 48.186 29.249 49.646ZM43.3481 49.646C43.3481 51.5063 43.0479 52.8882 42.4473 53.7915C41.8516 54.6948 40.9385 55.1465 39.708 55.1465C38.5166 55.1465 37.6133 54.6802 36.998 53.7476C36.3828 52.8149 36.0752 51.4478 36.0752 49.646C36.0752 47.7563 36.373 46.3647 36.9688 45.4712C37.5693 44.5728 38.4824 44.1235 39.708 44.1235C40.9043 44.1235 41.8101 44.5923 42.4253 45.5298C43.0405 46.4673 43.3481 47.8394 43.3481 49.646ZM37.8184 49.646C37.8184 51.106 37.9673 52.1484 38.2651 52.7734C38.5679 53.3984 39.0488 53.7109 39.708 53.7109C40.3672 53.7109 40.8481 53.3936 41.1509 52.7588C41.4585 52.124 41.6123 51.0864 41.6123 49.646C41.6123 48.2104 41.4585 47.1729 41.1509 46.5332C40.8481 45.8887 40.3672 45.5664 39.708 45.5664C39.0488 45.5664 38.5679 45.8813 38.2651 46.5112C37.9673 47.1411 37.8184 48.186 37.8184 49.646Z" fill="#262526"/>
<path d="M24 15L20 22.5H26L22 30" stroke="#262526" stroke-width="2"/>
</svg>
