<svg width="46" height="56" viewBox="0 0 46 56" fill="none" xmlns="http://www.w3.org/2000/svg">
<path d="M28.8976 39.5291V39.5291C31.4206 32.4496 37.156 25.9299 36.7403 18.4375C36.5617 15.2185 35.2251 12.0503 32.7305 9.59137C27.3565 4.2942 18.6435 4.2942 13.2695 9.59137C10.7749 12.0503 9.43827 15.2185 9.25968 18.4375C8.844 25.9299 14.5794 32.4496 17.1024 39.5291V39.5291" stroke="#262526" stroke-width="2"/>
<rect x="16.1367" y="39.5602" width="13.7268" height="4.78212" stroke="#262526" stroke-width="2"/>
<path d="M18.1025 44.4046H27.8977V52.0933H18.1025V44.4046Z" stroke="#262526" stroke-width="2"/>
<path d="M20.0684 52.1556H25.9318V55H20.0684V52.1556Z" stroke="#262526" stroke-width="2"/>
<path d="M20.8499 39.5291L17.1025 16.2761H23.0001H28.8977L25.1503 39.5291" stroke="#262526" stroke-width="2"/>
</svg>
