<svg width="46" height="57" viewBox="0 0 46 57" fill="none" xmlns="http://www.w3.org/2000/svg">
<rect x="6" y="15" width="9" height="41" stroke="#262526" stroke-width="2"/>
<rect x="18" y="15" width="9" height="41" stroke="#262526" stroke-width="2"/>
<rect x="30" y="15" width="9" height="41" stroke="#262526" stroke-width="2"/>
<rect x="15" y="22" width="3" height="6" stroke="#262526" stroke-width="2"/>
<rect x="15" y="45" width="3" height="6" stroke="#262526" stroke-width="2"/>
<rect x="27" y="22" width="3" height="6" stroke="#262526" stroke-width="2"/>
<rect x="39" y="22" width="5" height="4" stroke="#262526" stroke-width="2"/>
<rect x="39" y="45" width="5" height="6" stroke="#262526" stroke-width="2"/>
<rect x="1" y="22" width="5" height="4" stroke="#262526" stroke-width="2"/>
<rect x="27" y="45" width="3" height="6" stroke="#262526" stroke-width="2"/>
<path d="M30.7066 12C29.5032 11.5045 27.7461 9.20541 30.3456 6.35135C32.9451 3.4973 31.9101 1.79279 31.0677 1" stroke="#262526" stroke-width="2"/>
<path d="M22.7066 12C21.5032 11.5045 19.7461 9.20541 22.3456 6.35135C24.9451 3.4973 23.9101 1.79279 23.0677 1" stroke="#262526" stroke-width="2"/>
<path d="M14.7066 12C13.5032 11.5045 11.7461 9.20541 14.3456 6.35135C16.9451 3.4973 15.9101 1.79279 15.0677 1" stroke="#262526" stroke-width="2"/>
</svg>
