<svg width="46" height="56" viewBox="0 0 46 56" fill="none" xmlns="http://www.w3.org/2000/svg">
<rect x="1" y="17" width="30" height="38" stroke="#262526" stroke-width="2"/>
<rect x="6" y="22" width="20" height="5" stroke="#262526" stroke-width="2"/>
<rect x="8.5" y="50.5" width="11" height="1" stroke="#262526"/>
<rect x="8.75" y="32.75" width="1.5" height="1.5" stroke="#262526" stroke-width="1.5"/>
<rect x="8.75" y="38.75" width="1.5" height="1.5" stroke="#262526" stroke-width="1.5"/>
<rect x="8.75" y="44.75" width="1.5" height="1.5" stroke="#262526" stroke-width="1.5"/>
<rect x="14.75" y="32.75" width="1.5" height="1.5" stroke="#262526" stroke-width="1.5"/>
<rect x="14.75" y="38.75" width="1.5" height="1.5" stroke="#262526" stroke-width="1.5"/>
<rect x="14.75" y="44.75" width="1.5" height="1.5" stroke="#262526" stroke-width="1.5"/>
<rect x="20.75" y="32.75" width="1.5" height="1.5" stroke="#262526" stroke-width="1.5"/>
<rect x="20.75" y="38.75" width="1.5" height="1.5" stroke="#262526" stroke-width="1.5"/>
<rect x="20.75" y="44.75" width="1.5" height="1.5" stroke="#262526" stroke-width="1.5"/>
<rect x="13" y="10" width="8" height="7" stroke="#262526" stroke-width="2"/>
<rect x="15" y="1" width="4" height="9" stroke="#262526" stroke-width="2"/>
<rect x="38" y="29" width="9" height="7" transform="rotate(90 38 29)" stroke="#262526" stroke-width="2"/>
<rect x="45" y="31" width="5" height="7" transform="rotate(90 45 31)" stroke="#262526" stroke-width="2"/>
</svg>
