<svg width="18" height="20" viewBox="0 0 18 20" fill="none" xmlns="http://www.w3.org/2000/svg">
<path d="M17 15.6215V19H1V15.6215L6.06778 13.1189L6.625 12.8437V12.2222V11.1111V10.7745L6.4214 10.5063L6.10521 10.09C5.34763 9.09232 4.9375 7.87408 4.9375 6.62139V5.52876C4.9375 3.91654 5.89087 2.45688 7.36712 1.80886C8.40778 1.35206 9.59221 1.35206 10.6329 1.80886C12.1091 2.45688 13.0625 3.91654 13.0625 5.52876V6.62139C13.0625 7.87408 12.6524 9.09232 11.8948 10.09L11.5786 10.5063L11.375 10.7745V11.1111V12.2222V12.8437L11.9322 13.1189L17 15.6215Z" stroke="#041214" stroke-width="2"/>
</svg>
