<svg width="37" height="30" viewBox="0 0 37 30" fill="none" xmlns="http://www.w3.org/2000/svg">
<path d="M7.4002 15.0001H3.7002V21.2501M16.0335 23.7501H8.63353" stroke="" stroke-width="2"/>
<path d="M27.1343 17.5001H34.5343"  stroke-width="2"/>
<path d="M26.2344 0.00012207V26.2501H36.9999" stroke-width="2"/>
<path d="M26.1331 23.7501C26.1331 26.6623 23.8073 29.0001 20.9665 29.0001C18.1256 29.0001 15.7998 26.6623 15.7998 23.7501C15.7998 20.8379 18.1256 18.5001 20.9665 18.5001C23.8073 18.5001 26.1331 20.8379 26.1331 23.7501Z"  stroke-width="2"/>
<path d="M8.86667 24.9999C8.86667 27.2217 7.09304 28.9999 4.93333 28.9999C2.77362 28.9999 1 27.2217 1 24.9999C1 22.778 2.77362 20.9999 4.93333 20.9999C7.09304 20.9999 8.86667 22.778 8.86667 24.9999Z"  stroke-width="2"/>
<path d="M20.9666 18.7502L17.2666 2.50024H7.3999V15.0002L14.1832 18.7502H20.9666Z"  stroke-width="2"/>
</svg>
