<svg width="24" height="24" viewBox="0 0 24 24" fill="none" xmlns="http://www.w3.org/2000/svg">
<path d="M21.3679 2.6463C21.9346 3.21283 22.3768 3.89145 22.6662 4.63873C22.9999 5.52529 23.1779 6.46282 23.1924 7.40998C23.2624 8.60619 23.2624 8.9937 23.2624 12.0472V12.0475C23.2624 15.1012 23.2462 15.4825 23.1924 16.685C23.1737 17.62 22.9974 18.5425 22.6687 19.4175C22.3789 20.1647 21.9366 20.8433 21.3699 21.4099C20.8032 21.9766 20.1246 22.419 19.3774 22.7087C18.5027 23.0364 17.5788 23.2135 16.6449 23.2325C15.4512 23.3012 15.06 23.3012 12.0077 23.3012H12.0074C8.95494 23.3012 8.57369 23.285 7.36994 23.2325C6.43416 23.2017 5.51048 23.0115 4.63869 22.67C3.89127 22.3807 3.21241 21.9387 2.64549 21.3722C2.07856 20.8057 1.63604 20.1272 1.34619 19.38C1.01744 18.5037 0.841191 17.5812 0.822441 16.6462C0.752441 15.45 0.752441 15.0612 0.752441 12.0087C0.752441 8.95497 0.768691 8.57372 0.822441 7.37122C0.84071 6.43727 1.01782 5.51324 1.34619 4.63873C1.63523 3.89126 2.07732 3.21246 2.64411 2.64589C3.2109 2.07931 3.88986 1.63748 4.63744 1.34873C5.51089 1.01948 6.43418 0.841922 7.36744 0.823725C8.56119 0.756226 8.95244 0.756226 12.0049 0.756226C15.0574 0.756226 15.4387 0.771225 16.6424 0.823725C17.5764 0.842902 18.5004 1.02042 19.3749 1.34873C20.1223 1.63781 20.8011 2.07977 21.3679 2.6463Z" fill="#262526"/>
<path d="M12 17C10.6739 17 9.40215 16.4732 8.46447 15.5355C7.52678 14.5979 7 13.3261 7 12C7 10.6739 7.52678 9.40215 8.46447 8.46447C9.40215 7.52678 10.6739 7 12 7C13.3261 7 14.5979 7.52678 15.5355 8.46447C16.4732 9.40215 17 10.6739 17 12C17 13.3261 16.4732 14.5979 15.5355 15.5355C14.5979 16.4732 13.3261 17 12 17Z" fill="#F8F8F8"/>
<path d="M18.0077 7.35625C18.7519 7.35625 19.3552 6.75296 19.3552 6.00875C19.3552 5.26455 18.7519 4.66125 18.0077 4.66125C17.2635 4.66125 16.6602 5.26455 16.6602 6.00875C16.6602 6.75296 17.2635 7.35625 18.0077 7.35625Z" fill="#F8F8F8"/>
</svg>
