<svg width="300" height="29" viewBox="0 0 300 29" fill="none" xmlns="http://www.w3.org/2000/svg">
<path d="M242.575 4.07422V24.8338H237.511V8.17424H230.677L230.159 14.5837C230.037 16.5555 229.634 18.5022 228.961 20.3705C228.42 21.7177 227.473 22.8823 226.239 23.718C224.918 24.5621 223.423 25.1283 221.855 25.3787L221.011 21.2268C221.824 21.0648 222.588 20.7275 223.243 20.2407C223.864 19.6693 224.299 18.9396 224.496 18.1388C224.858 16.7772 225.095 15.3879 225.204 13.9869L226.239 4.07422H242.575Z" fill="#262526"/>
<path d="M126.829 4.07422H130.94V24.8338H125.903V16.53V11.7553L114.358 24.8338H110.165V4.07422H115.148V17.0489L126.829 4.07422Z" fill="#262526"/>
<path d="M219.759 24.8338H213.278L204.457 15.7255V24.8338H199.501V4.07422H204.457V12.7932L212.325 4.07422H218.425L209.276 14.1167L219.759 24.8338Z" fill="#262526"/>
<path d="M300 20.734V28.908H295.289V24.834H279.143V28.8302H274.405V20.734H276.856C277.569 19.9274 278.122 19.0042 278.489 18.0093C278.923 16.7041 279.188 15.3534 279.279 13.9871L280.259 3.99658H296.596V20.734H300ZM284.126 14.2726C284.06 15.5532 283.85 16.8234 283.499 18.0612C283.212 18.9735 282.8 19.8459 282.274 20.6561H291.586V8.17444H284.561L284.126 14.2726Z" fill="#262526"/>
<path d="M11 25.5659C17.0751 25.5659 22 20.6411 22 14.5659C22 8.49079 17.0751 3.56592 11 3.56592C4.92487 3.56592 0 8.49079 0 14.5659C0 20.6411 4.92487 25.5659 11 25.5659Z" fill="#262526"/>
<path d="M92.1675 3.52909C89.9039 3.54446 87.6957 4.19822 85.8214 5.40795C83.9471 6.61768 82.4905 8.32921 81.6354 10.3268C80.7803 12.3243 80.565 14.5184 81.0164 16.6324C81.4679 18.7465 82.5661 20.6858 84.1724 22.2058C85.7788 23.7259 87.8214 24.7587 90.0427 25.174C92.2641 25.5892 94.5647 25.3684 96.6546 24.5393C98.7444 23.7102 100.53 22.3099 101.786 20.5151C103.042 18.7203 103.712 16.6112 103.712 14.4538C103.712 13.0126 103.413 11.5856 102.832 10.255C102.251 8.92449 101.399 7.71669 100.326 6.70121C99.2529 5.68573 97.9795 4.88264 96.5793 4.33822C95.1791 3.79381 93.6797 3.51882 92.1675 3.52909V3.52909ZM92.1675 21.0709C90.7931 21.076 89.4481 20.6923 88.3027 19.9684C87.1573 19.2444 86.2631 18.2128 85.7335 17.0041C85.2038 15.7954 85.0624 14.4641 85.3272 13.1789C85.592 11.8936 86.2511 10.7121 87.2211 9.78405C88.191 8.85603 89.4281 8.22323 90.7757 7.9658C92.1233 7.70836 93.5207 7.83789 94.791 8.33795C96.0613 8.83801 97.1473 9.68612 97.9114 10.7749C98.6755 11.8636 99.0834 13.144 99.0835 14.4538C99.0835 16.2043 98.3557 17.8834 97.0595 19.1237C95.7633 20.3639 94.0042 21.064 92.1675 21.0709V21.0709Z" fill="#262526"/>
<path d="M104.038 3.99658H99.6006V24.9118H104.038V3.99658Z" fill="#262526"/>
<path d="M258.913 3.52942C256.643 3.51915 254.421 4.15112 252.529 5.34528C250.637 6.53944 249.159 8.24204 248.283 10.2373C247.407 12.2326 247.173 14.4309 247.609 16.5535C248.045 18.6761 249.132 20.6275 250.733 22.1606C252.334 23.6936 254.377 24.7392 256.602 25.165C258.827 25.5908 261.134 25.3775 263.232 24.5521C265.33 23.7268 267.123 22.3266 268.385 20.5289C269.647 18.7313 270.321 16.6171 270.321 14.4541C270.321 11.5657 269.121 8.79478 266.983 6.74748C264.845 4.70019 261.943 3.54314 258.913 3.52942V3.52942ZM258.913 21.0713C257.536 21.0867 256.186 20.7118 255.033 19.9941C253.881 19.2765 252.978 18.2485 252.44 17.0408C251.902 15.8331 251.753 14.5003 252.011 13.2116C252.27 11.9229 252.925 10.7366 253.892 9.80336C254.86 8.87014 256.097 8.23214 257.446 7.97045C258.795 7.70875 260.195 7.83517 261.469 8.33363C262.742 8.83209 263.831 9.6801 264.598 10.7699C265.365 11.8597 265.774 13.1421 265.774 14.4541C265.774 16.1957 265.054 17.8671 263.769 19.1058C262.485 20.3446 260.74 21.0508 258.913 21.0713V21.0713Z" fill="#262526"/>
<path d="M270.756 3.99658H266.319V24.9118H270.756V3.99658Z" fill="#262526"/>
<path d="M186.703 21.0711C185.56 21.0738 184.434 20.8075 183.425 20.2958C182.416 19.7841 181.555 19.0429 180.919 18.138C180.282 17.2331 179.89 16.1925 179.777 15.1084C179.664 14.0244 179.834 12.9306 180.271 11.924C180.708 10.9174 181.399 10.0292 182.283 9.33827C183.166 8.64732 184.215 8.17499 185.336 7.9632C186.458 7.7514 187.616 7.8067 188.71 8.12418C189.803 8.44166 190.798 9.01151 191.604 9.78313L194.817 6.66919C193.207 5.15836 191.164 4.13474 188.946 3.72696C186.727 3.31917 184.431 3.54542 182.347 4.37725C180.263 5.20908 178.483 6.6094 177.232 8.40226C175.98 10.1951 175.312 12.3006 175.312 14.454C175.312 16.6075 175.98 18.7129 177.232 20.5058C178.483 22.2987 180.263 23.699 182.347 24.5308C184.431 25.3626 186.727 25.5889 188.946 25.1811C191.164 24.7733 193.207 23.7497 194.817 22.2389L191.604 19.1249C190.306 20.3669 188.543 21.0668 186.703 21.0711V21.0711Z" fill="#262526"/>
<path d="M48.873 3.99658H43.8916V24.9118H48.873V3.99658Z" fill="#262526"/>
<path d="M33.1626 3.99658H28.1812V24.9118H33.1626V3.99658Z" fill="#262526"/>
<path d="M48.8745 16.5297V12.3518L28.1811 12.3518V16.5297H48.8745Z" fill="#262526"/>
<path d="M157.704 3.99658H152.723V24.9118H157.704V3.99658Z" fill="#262526"/>
<path d="M141.966 3.99658H136.985V24.9118H141.966V3.99658Z" fill="#262526"/>
<path d="M157.678 16.5297V12.3518L136.985 12.3518V16.5297H157.678Z" fill="#262526"/>
<path d="M120.539 0.908227C120.411 0.911698 120.285 0.890771 120.166 0.846685C120.047 0.802599 119.939 0.736253 119.847 0.651567C119.756 0.566882 119.683 0.465587 119.634 0.353669C119.584 0.241751 119.559 0.121486 119.559 0H116.346C116.346 1.05986 116.787 2.07631 117.574 2.82575C118.36 3.57518 119.427 3.99622 120.539 3.99622C121.651 3.99622 122.717 3.57518 123.504 2.82575C124.29 2.07631 124.732 1.05986 124.732 0H121.492C121.492 0.119271 121.467 0.23737 121.419 0.347561C121.371 0.457753 121.301 0.557876 121.213 0.642213C121.124 0.72655 121.019 0.79345 120.904 0.839093C120.788 0.884736 120.664 0.908227 120.539 0.908227V0.908227Z" fill="#262526"/>
<path d="M75.4494 4.07422V24.8338H70.4939V8.17424H63.6324L63.1151 14.5837C62.9751 16.5579 62.5537 18.5047 61.8626 20.3705C61.3655 21.6979 60.4767 22.8603 59.3031 23.718C57.9924 24.5623 56.5067 25.1286 54.9466 25.3787L54.1025 21.2268C54.9064 21.0611 55.6604 20.7239 56.308 20.2407C56.9287 19.6693 57.3635 18.9396 57.5605 18.1388C57.9364 16.7798 58.1735 15.3894 58.2684 13.9869L59.2487 4.07422H75.4494Z" fill="#262526"/>
</svg>
