<svg width="26" height="16" viewBox="0 0 26 16" fill="none" xmlns="http://www.w3.org/2000/svg">
<path d="M24.9738 1.56878C25.1488 0.98753 24.9737 0.561279 24.1462 0.561279H21.405C20.7075 0.561279 20.3888 0.93003 20.2137 1.33503C20.2137 1.33503 18.82 4.73378 16.845 6.93753C16.2075 7.57878 15.9163 7.78128 15.5688 7.78128C15.395 7.78128 15.1425 7.57878 15.1425 6.99753V1.56878C15.1425 0.87128 14.9413 0.561279 14.36 0.561279H10.0525C9.6175 0.561279 9.355 0.88378 9.355 1.19128C9.355 1.85128 10.3425 2.00378 10.4438 3.86378V7.89878C10.4438 8.78253 10.285 8.94378 9.935 8.94378C9.00625 8.94378 6.74625 5.53253 5.405 1.62753C5.14375 0.86878 4.88 0.56253 4.18 0.56253H1.44C0.65625 0.56253 0.5 0.93128 0.5 1.33628C0.5 2.06378 1.42875 5.66378 4.82625 10.425C7.09125 13.6763 10.28 15.4388 13.185 15.4388C14.9262 15.4388 15.1413 15.0475 15.1413 14.3725V11.915C15.1413 11.1325 15.3075 10.975 15.8587 10.975C16.2638 10.975 16.9612 11.18 18.5875 12.7463C20.445 14.6038 20.7525 15.4375 21.7963 15.4375H24.5363C25.3188 15.4375 25.71 15.0463 25.485 14.2738C25.2388 13.505 24.3512 12.3863 23.1737 11.0625C22.5338 10.3075 21.5775 9.49503 21.2862 9.08878C20.88 8.56503 20.9975 8.33378 21.2862 7.86878C21.2875 7.87003 24.6263 3.16753 24.9738 1.56878Z" fill="#262526"/>
</svg>
