<svg width="37" height="30" viewBox="0 0 37 30" fill="none" xmlns="http://www.w3.org/2000/svg">
<path d="M7.4002 15H3.7002V21.25M16.0335 23.75H8.63353" stroke="#262526" stroke-width="2"/>
<path d="M27.1343 17.5H34.5343" stroke="#262526" stroke-width="1.5"/>
<path d="M26.2344 0V26.2499H36.9999" stroke="#262526" stroke-width="1.5"/>
<path d="M26.1331 23.75C26.1331 26.6622 23.8073 29 20.9665 29C18.1256 29 15.7998 26.6622 15.7998 23.75C15.7998 20.8378 18.1256 18.5 20.9665 18.5C23.8073 18.5 26.1331 20.8378 26.1331 23.75Z" stroke="#262526" stroke-width="2"/>
<path d="M8.86667 25C8.86667 27.2218 7.09304 29 4.93333 29C2.77362 29 1 27.2218 1 25C1 22.7782 2.77362 21 4.93333 21C7.09304 21 8.86667 22.7782 8.86667 25Z" stroke="#262526" stroke-width="2"/>
<path d="M20.9666 18.75L17.2666 2.5H7.3999V15L14.1832 18.75H20.9666Z" stroke="#262526" stroke-width="2"/>
</svg>
